<?xml version="1.0" encoding="UTF-8"?>
<svg xmlns="http://www.w3.org/2000/svg" xmlns:xlink="http://www.w3.org/1999/xlink" viewBox="0 0 208 208" width="208px" height="208px">
<g id="surface20444478">
<path style=" stroke:none;fill-rule:nonzero;fill:rgb(100%,100%,100%);fill-opacity:1;" d="M 0 72 L 0 136 L 64 136 L 64 72 Z M 72 72 L 72 136 L 136 136 L 136 72 Z M 144 72 L 144 136 L 208 136 L 208 72 Z M 178 82.25 C 179.5625 82.1875 181.46875 82.3125 183.5 82.5 C 183.5 82.5 188.28125 82.84375 195.25 85.75 L 195.25 93.75 C 195.25 93.75 187.5 88.84375 179 88.75 C 179 88.75 163.21875 88.5 162.5 104 C 162.5 104 161.8125 118.1875 178.75 119 C 178.75 119 185.875 119.90625 195.5 113.75 L 195.5 122 C 195.5 122 182.71875 129.65625 167.75 123.75 C 167.75 123.75 154.96875 119.09375 154.5 104 C 154.5 104 153.9375 88.40625 170.75 83.25 C 170.75 83.25 173.34375 82.40625 178 82.25 Z M 16.5 82.75 L 31.5 82.75 C 44.96875 84 44 94 44 94 C 44.0625 100.1875 38.75 102.75 38.75 102.75 C 48.375 105.1875 48 113.25 48 113.25 C 48 125.3125 33.75 125.25 33.75 125.25 L 16.5 125.25 Z M 89 82.75 L 104 82.75 C 117.46875 84 116.75 94 116.75 94 C 116.8125 100.1875 111.25 102.75 111.25 102.75 C 120.875 105.1875 120.5 113.25 120.5 113.25 C 120.5 125.3125 106.25 125.25 106.25 125.25 L 89 125.25 Z M 24 89.25 L 24 100.25 L 29.25 100.25 C 29.25 100.25 36.25 100.375 36.25 94.5 C 36.25 94.5 36.59375 89.59375 30.25 89.25 Z M 96.75 89.25 L 96.75 100.25 L 101.75 100.25 C 101.75 100.25 108.75 100.375 108.75 94.5 C 108.75 94.5 109.09375 89.59375 102.75 89.25 Z M 24 107 L 24 118.75 L 32.25 118.75 C 32.25 118.75 40.25 119.1875 40.25 112.75 C 40.25 112.75 40.5 106.9375 32.25 107 Z M 96.75 107 L 96.75 118.75 L 104.75 118.75 C 104.75 118.75 112.75 119.1875 112.75 112.75 C 112.75 112.75 113 106.9375 104.75 107 Z M 96.75 107 "/>
</g>
</svg>
